# xmcd
#
# Track frame offsets: 
#        150
#        24235
#        45250
#        64580
#        92225
#        113085
#        133553
#        155713
#        186473
#        203720
#
# Disc length: 3064 seconds
#
# Revision: 0
# Processed by: cddbd v1.5.2PL0 Copyright (c) Steve Scherf et al.
# Submitted via: ExactAudioCopy v1.0b3
#
DISCID=800bf60a
DTITLE=Various Artist - Yeu Mot Minh
DYEAR=1990
DGENRE=
TTITLE0=Tuan Vu - Tam su nguoi linh tre
TTITLE1=Son Tuyen - Tam anh khong hon
TTITLE2=Son Ca - Toi da gap
TTITLE3=Huong Lan - Yeu la chet trong long
TTITLE4=Tuan Vu - Ngoai o buon
TTITLE5=Tuan Vu, Huong Lan - Yeu mot minh
TTITLE6=Son Tuyen - Linh xa nha
TTITLE7=Tuan Vu - Tam su voi em
TTITLE8=Tuan Anh - Rung chua thay la (Rung la thay chua)
TTITLE9=Son Tuyen - Xin thoi gian qua mau (Hai phuong troi cach biet)
EXTD=
EXTT0=
EXTT1=
EXTT2=
EXTT3=
EXTT4=
EXTT5=
EXTT6=
EXTT7=
EXTT8=
EXTT9=
PLAYORDER=
